<svg width="14" height="14" viewBox="0 0 14 14" fill="none" xmlns="http://www.w3.org/2000/svg">
<path d="M13.1891 5.16512L9.22187 4.58856L7.44844 0.993249C7.4 0.894812 7.32031 0.815124 7.22187 0.766687C6.975 0.644812 6.675 0.746374 6.55156 0.993249L4.77812 4.58856L0.810936 5.16512C0.701561 5.18075 0.601561 5.23231 0.524999 5.31044C0.432439 5.40557 0.381434 5.53356 0.383192 5.66628C0.38495 5.79901 0.439327 5.9256 0.534374 6.01825L3.40469 8.81669L2.72656 12.7682C2.71066 12.8602 2.72083 12.9547 2.75592 13.0411C2.79102 13.1276 2.84963 13.2025 2.92511 13.2573C3.00059 13.3121 3.08992 13.3447 3.18297 13.3513C3.27602 13.3579 3.36907 13.3384 3.45156 13.2948L7 11.4292L10.5484 13.2948C10.6453 13.3464 10.7578 13.3636 10.8656 13.3448C11.1375 13.2979 11.3203 13.0401 11.2734 12.7682L10.5953 8.81669L13.4656 6.01825C13.5437 5.94169 13.5953 5.84169 13.6109 5.73231C13.6531 5.45887 13.4625 5.20575 13.1891 5.16512Z" fill="#FEA250"/>
</svg>
